<mxfile host="app.diagrams.net" modified="2022-09-02T07:33:28.666Z" agent="5.0 (Windows NT 10.0; Win64; x64) AppleWebKit/537.36 (KHTML, like Gecko) Chrome/105.0.0.0 Safari/537.36" etag="I-f6uSbv1_b-mnQiWC6P" version="20.2.5" type="github">
  <diagram id="bgBW7Q1QX3YyLIT54kW2" name="Page-1">
    <mxGraphModel dx="2272" dy="762" grid="1" gridSize="10" guides="1" tooltips="1" connect="1" arrows="1" fold="1" page="1" pageScale="1" pageWidth="850" pageHeight="1100" math="0" shadow="0">
      <root>
        <mxCell id="0" />
        <mxCell id="1" parent="0" />
        <mxCell id="u8P_IBuPq3PQ_i1UfOx8-7" style="edgeStyle=orthogonalEdgeStyle;rounded=0;orthogonalLoop=1;jettySize=auto;html=1;exitX=1;exitY=0.5;exitDx=0;exitDy=0;entryX=-0.025;entryY=0.4;entryDx=0;entryDy=0;entryPerimeter=0;" parent="1" source="u8P_IBuPq3PQ_i1UfOx8-1" target="u8P_IBuPq3PQ_i1UfOx8-3" edge="1">
          <mxGeometry relative="1" as="geometry" />
        </mxCell>
        <mxCell id="u8P_IBuPq3PQ_i1UfOx8-8" style="edgeStyle=orthogonalEdgeStyle;rounded=0;orthogonalLoop=1;jettySize=auto;html=1;exitX=1;exitY=0.5;exitDx=0;exitDy=0;entryX=0;entryY=0.5;entryDx=0;entryDy=0;" parent="1" source="u8P_IBuPq3PQ_i1UfOx8-1" target="u8P_IBuPq3PQ_i1UfOx8-6" edge="1">
          <mxGeometry relative="1" as="geometry" />
        </mxCell>
        <mxCell id="u8P_IBuPq3PQ_i1UfOx8-1" value="SM4-ECB(计算Tweak)" style="rounded=1;whiteSpace=wrap;html=1;fillColor=#dae8fc;strokeColor=#6c8ebf;" parent="1" vertex="1">
          <mxGeometry x="130" y="330" width="140" height="60" as="geometry" />
        </mxCell>
        <mxCell id="u8P_IBuPq3PQ_i1UfOx8-17" style="edgeStyle=orthogonalEdgeStyle;rounded=0;orthogonalLoop=1;jettySize=auto;html=1;exitX=1;exitY=0.5;exitDx=0;exitDy=0;entryX=0;entryY=0.5;entryDx=0;entryDy=0;" parent="1" source="u8P_IBuPq3PQ_i1UfOx8-3" target="u8P_IBuPq3PQ_i1UfOx8-16" edge="1">
          <mxGeometry relative="1" as="geometry" />
        </mxCell>
        <mxCell id="u8P_IBuPq3PQ_i1UfOx8-3" value="模乘 + SM4-ECB" style="rounded=1;whiteSpace=wrap;html=1;fillColor=#e1d5e7;strokeColor=#9673a6;" parent="1" vertex="1">
          <mxGeometry x="320" y="280" width="120" height="60" as="geometry" />
        </mxCell>
        <mxCell id="u8P_IBuPq3PQ_i1UfOx8-11" style="edgeStyle=orthogonalEdgeStyle;rounded=0;orthogonalLoop=1;jettySize=auto;html=1;exitX=1;exitY=0.5;exitDx=0;exitDy=0;entryX=0;entryY=0.5;entryDx=0;entryDy=0;" parent="1" source="u8P_IBuPq3PQ_i1UfOx8-5" target="u8P_IBuPq3PQ_i1UfOx8-9" edge="1">
          <mxGeometry relative="1" as="geometry" />
        </mxCell>
        <mxCell id="u8P_IBuPq3PQ_i1UfOx8-12" style="edgeStyle=orthogonalEdgeStyle;rounded=0;orthogonalLoop=1;jettySize=auto;html=1;exitX=1;exitY=0.5;exitDx=0;exitDy=0;entryX=0;entryY=0.5;entryDx=0;entryDy=0;" parent="1" source="u8P_IBuPq3PQ_i1UfOx8-5" target="u8P_IBuPq3PQ_i1UfOx8-10" edge="1">
          <mxGeometry relative="1" as="geometry" />
        </mxCell>
        <mxCell id="u8P_IBuPq3PQ_i1UfOx8-5" value="SM4-ECB(计算Tweak)" style="rounded=1;whiteSpace=wrap;html=1;" parent="1" vertex="1">
          <mxGeometry x="130" y="500" width="140" height="60" as="geometry" />
        </mxCell>
        <mxCell id="u8P_IBuPq3PQ_i1UfOx8-19" style="edgeStyle=orthogonalEdgeStyle;rounded=0;orthogonalLoop=1;jettySize=auto;html=1;exitX=1;exitY=0.5;exitDx=0;exitDy=0;entryX=0;entryY=0.5;entryDx=0;entryDy=0;" parent="1" source="u8P_IBuPq3PQ_i1UfOx8-6" target="u8P_IBuPq3PQ_i1UfOx8-16" edge="1">
          <mxGeometry relative="1" as="geometry" />
        </mxCell>
        <mxCell id="u8P_IBuPq3PQ_i1UfOx8-6" value="模乘 + SM4-ECB" style="rounded=1;whiteSpace=wrap;html=1;" parent="1" vertex="1">
          <mxGeometry x="320" y="380" width="120" height="60" as="geometry" />
        </mxCell>
        <mxCell id="u8P_IBuPq3PQ_i1UfOx8-20" style="edgeStyle=orthogonalEdgeStyle;rounded=0;orthogonalLoop=1;jettySize=auto;html=1;exitX=1;exitY=0.5;exitDx=0;exitDy=0;entryX=0;entryY=0.5;entryDx=0;entryDy=0;" parent="1" source="u8P_IBuPq3PQ_i1UfOx8-9" target="u8P_IBuPq3PQ_i1UfOx8-16" edge="1">
          <mxGeometry relative="1" as="geometry" />
        </mxCell>
        <mxCell id="u8P_IBuPq3PQ_i1UfOx8-9" value="模乘 + SM4-ECB" style="rounded=1;whiteSpace=wrap;html=1;" parent="1" vertex="1">
          <mxGeometry x="320" y="470" width="120" height="60" as="geometry" />
        </mxCell>
        <mxCell id="u8P_IBuPq3PQ_i1UfOx8-21" style="edgeStyle=orthogonalEdgeStyle;rounded=0;orthogonalLoop=1;jettySize=auto;html=1;exitX=1;exitY=0.5;exitDx=0;exitDy=0;entryX=0;entryY=0.5;entryDx=0;entryDy=0;" parent="1" source="u8P_IBuPq3PQ_i1UfOx8-10" target="u8P_IBuPq3PQ_i1UfOx8-16" edge="1">
          <mxGeometry relative="1" as="geometry" />
        </mxCell>
        <mxCell id="u8P_IBuPq3PQ_i1UfOx8-10" value="模乘 + SM4-ECB" style="rounded=1;whiteSpace=wrap;html=1;" parent="1" vertex="1">
          <mxGeometry x="320" y="560" width="120" height="60" as="geometry" />
        </mxCell>
        <mxCell id="u8P_IBuPq3PQ_i1UfOx8-14" style="edgeStyle=orthogonalEdgeStyle;rounded=0;orthogonalLoop=1;jettySize=auto;html=1;entryX=0;entryY=0.5;entryDx=0;entryDy=0;" parent="1" source="u8P_IBuPq3PQ_i1UfOx8-13" target="u8P_IBuPq3PQ_i1UfOx8-1" edge="1">
          <mxGeometry relative="1" as="geometry" />
        </mxCell>
        <mxCell id="u8P_IBuPq3PQ_i1UfOx8-15" style="edgeStyle=orthogonalEdgeStyle;rounded=0;orthogonalLoop=1;jettySize=auto;html=1;exitX=1;exitY=0.5;exitDx=0;exitDy=0;entryX=0;entryY=0.5;entryDx=0;entryDy=0;" parent="1" source="u8P_IBuPq3PQ_i1UfOx8-13" target="u8P_IBuPq3PQ_i1UfOx8-5" edge="1">
          <mxGeometry relative="1" as="geometry" />
        </mxCell>
        <mxCell id="u8P_IBuPq3PQ_i1UfOx8-13" value="H2C" style="rounded=1;whiteSpace=wrap;html=1;" parent="1" vertex="1">
          <mxGeometry x="-60" y="430" width="120" height="60" as="geometry" />
        </mxCell>
        <mxCell id="u8P_IBuPq3PQ_i1UfOx8-16" value="C2H" style="rounded=1;whiteSpace=wrap;html=1;" parent="1" vertex="1">
          <mxGeometry x="560" y="430" width="120" height="60" as="geometry" />
        </mxCell>
        <mxCell id="u8P_IBuPq3PQ_i1UfOx8-29" style="edgeStyle=orthogonalEdgeStyle;rounded=0;orthogonalLoop=1;jettySize=auto;html=1;exitX=1;exitY=0.5;exitDx=0;exitDy=0;entryX=0;entryY=0.5;entryDx=0;entryDy=0;" parent="1" source="u8P_IBuPq3PQ_i1UfOx8-22" target="u8P_IBuPq3PQ_i1UfOx8-23" edge="1">
          <mxGeometry relative="1" as="geometry" />
        </mxCell>
        <mxCell id="u8P_IBuPq3PQ_i1UfOx8-30" style="edgeStyle=orthogonalEdgeStyle;rounded=0;orthogonalLoop=1;jettySize=auto;html=1;exitX=1;exitY=0.5;exitDx=0;exitDy=0;entryX=0;entryY=0.5;entryDx=0;entryDy=0;" parent="1" source="u8P_IBuPq3PQ_i1UfOx8-22" target="u8P_IBuPq3PQ_i1UfOx8-24" edge="1">
          <mxGeometry relative="1" as="geometry" />
        </mxCell>
        <mxCell id="u8P_IBuPq3PQ_i1UfOx8-31" style="edgeStyle=orthogonalEdgeStyle;rounded=0;orthogonalLoop=1;jettySize=auto;html=1;exitX=1;exitY=0.5;exitDx=0;exitDy=0;entryX=0;entryY=0.5;entryDx=0;entryDy=0;" parent="1" source="u8P_IBuPq3PQ_i1UfOx8-22" target="u8P_IBuPq3PQ_i1UfOx8-25" edge="1">
          <mxGeometry relative="1" as="geometry" />
        </mxCell>
        <mxCell id="u8P_IBuPq3PQ_i1UfOx8-32" style="edgeStyle=orthogonalEdgeStyle;rounded=0;orthogonalLoop=1;jettySize=auto;html=1;exitX=1;exitY=0.5;exitDx=0;exitDy=0;entryX=0;entryY=0.5;entryDx=0;entryDy=0;" parent="1" source="u8P_IBuPq3PQ_i1UfOx8-22" target="u8P_IBuPq3PQ_i1UfOx8-26" edge="1">
          <mxGeometry relative="1" as="geometry" />
        </mxCell>
        <mxCell id="u8P_IBuPq3PQ_i1UfOx8-33" style="edgeStyle=orthogonalEdgeStyle;rounded=0;orthogonalLoop=1;jettySize=auto;html=1;exitX=1;exitY=0.5;exitDx=0;exitDy=0;entryX=0;entryY=0.5;entryDx=0;entryDy=0;" parent="1" source="u8P_IBuPq3PQ_i1UfOx8-22" target="u8P_IBuPq3PQ_i1UfOx8-27" edge="1">
          <mxGeometry relative="1" as="geometry" />
        </mxCell>
        <mxCell id="u8P_IBuPq3PQ_i1UfOx8-34" style="edgeStyle=orthogonalEdgeStyle;rounded=0;orthogonalLoop=1;jettySize=auto;html=1;exitX=1;exitY=0.5;exitDx=0;exitDy=0;entryX=0;entryY=0.5;entryDx=0;entryDy=0;" parent="1" source="u8P_IBuPq3PQ_i1UfOx8-22" target="u8P_IBuPq3PQ_i1UfOx8-28" edge="1">
          <mxGeometry relative="1" as="geometry" />
        </mxCell>
        <mxCell id="u8P_IBuPq3PQ_i1UfOx8-22" value="H2C" style="rounded=1;whiteSpace=wrap;html=1;" parent="1" vertex="1">
          <mxGeometry x="-60" y="864" width="120" height="60" as="geometry" />
        </mxCell>
        <mxCell id="u8P_IBuPq3PQ_i1UfOx8-36" style="edgeStyle=orthogonalEdgeStyle;rounded=0;orthogonalLoop=1;jettySize=auto;html=1;exitX=1;exitY=0.5;exitDx=0;exitDy=0;entryX=0;entryY=0.5;entryDx=0;entryDy=0;" parent="1" source="u8P_IBuPq3PQ_i1UfOx8-23" target="u8P_IBuPq3PQ_i1UfOx8-35" edge="1">
          <mxGeometry relative="1" as="geometry" />
        </mxCell>
        <mxCell id="u8P_IBuPq3PQ_i1UfOx8-23" value="SM4-ECB(计算Tweak) + 模乘 + SM4-ECB" style="rounded=1;whiteSpace=wrap;html=1;fillColor=#fff2cc;strokeColor=#d6b656;" parent="1" vertex="1">
          <mxGeometry x="210" y="690" width="240" height="60" as="geometry" />
        </mxCell>
        <mxCell id="u8P_IBuPq3PQ_i1UfOx8-38" style="edgeStyle=orthogonalEdgeStyle;rounded=0;orthogonalLoop=1;jettySize=auto;html=1;exitX=1;exitY=0.5;exitDx=0;exitDy=0;entryX=0;entryY=0.5;entryDx=0;entryDy=0;" parent="1" source="u8P_IBuPq3PQ_i1UfOx8-24" target="u8P_IBuPq3PQ_i1UfOx8-35" edge="1">
          <mxGeometry relative="1" as="geometry" />
        </mxCell>
        <mxCell id="u8P_IBuPq3PQ_i1UfOx8-24" value="SM4-ECB(计算Tweak) + 模乘 + SM4-ECB" style="rounded=1;whiteSpace=wrap;html=1;" parent="1" vertex="1">
          <mxGeometry x="210" y="758" width="240" height="60" as="geometry" />
        </mxCell>
        <mxCell id="u8P_IBuPq3PQ_i1UfOx8-39" style="edgeStyle=orthogonalEdgeStyle;rounded=0;orthogonalLoop=1;jettySize=auto;html=1;exitX=1;exitY=0.5;exitDx=0;exitDy=0;" parent="1" source="u8P_IBuPq3PQ_i1UfOx8-25" target="u8P_IBuPq3PQ_i1UfOx8-35" edge="1">
          <mxGeometry relative="1" as="geometry" />
        </mxCell>
        <mxCell id="u8P_IBuPq3PQ_i1UfOx8-25" value="SM4-ECB(计算Tweak) + 模乘 + SM4-ECB" style="rounded=1;whiteSpace=wrap;html=1;" parent="1" vertex="1">
          <mxGeometry x="210" y="830" width="240" height="60" as="geometry" />
        </mxCell>
        <mxCell id="u8P_IBuPq3PQ_i1UfOx8-40" style="edgeStyle=orthogonalEdgeStyle;rounded=0;orthogonalLoop=1;jettySize=auto;html=1;exitX=1;exitY=0.5;exitDx=0;exitDy=0;entryX=0;entryY=0.5;entryDx=0;entryDy=0;" parent="1" source="u8P_IBuPq3PQ_i1UfOx8-26" target="u8P_IBuPq3PQ_i1UfOx8-35" edge="1">
          <mxGeometry relative="1" as="geometry" />
        </mxCell>
        <mxCell id="u8P_IBuPq3PQ_i1UfOx8-26" value="SM4-ECB(计算Tweak) + 模乘 + SM4-ECB" style="rounded=1;whiteSpace=wrap;html=1;" parent="1" vertex="1">
          <mxGeometry x="210" y="900" width="240" height="60" as="geometry" />
        </mxCell>
        <mxCell id="u8P_IBuPq3PQ_i1UfOx8-41" style="edgeStyle=orthogonalEdgeStyle;rounded=0;orthogonalLoop=1;jettySize=auto;html=1;exitX=1;exitY=0.5;exitDx=0;exitDy=0;entryX=0;entryY=0.5;entryDx=0;entryDy=0;" parent="1" source="u8P_IBuPq3PQ_i1UfOx8-27" target="u8P_IBuPq3PQ_i1UfOx8-35" edge="1">
          <mxGeometry relative="1" as="geometry" />
        </mxCell>
        <mxCell id="u8P_IBuPq3PQ_i1UfOx8-27" value="SM4-ECB(计算Tweak) + 模乘 + SM4-ECB" style="rounded=1;whiteSpace=wrap;html=1;" parent="1" vertex="1">
          <mxGeometry x="210" y="968" width="240" height="60" as="geometry" />
        </mxCell>
        <mxCell id="u8P_IBuPq3PQ_i1UfOx8-42" style="edgeStyle=orthogonalEdgeStyle;rounded=0;orthogonalLoop=1;jettySize=auto;html=1;exitX=1;exitY=0.5;exitDx=0;exitDy=0;entryX=0;entryY=0.5;entryDx=0;entryDy=0;" parent="1" source="u8P_IBuPq3PQ_i1UfOx8-28" target="u8P_IBuPq3PQ_i1UfOx8-35" edge="1">
          <mxGeometry relative="1" as="geometry" />
        </mxCell>
        <mxCell id="u8P_IBuPq3PQ_i1UfOx8-28" value="SM4-ECB(计算Tweak) + 模乘 + SM4-ECB" style="rounded=1;whiteSpace=wrap;html=1;" parent="1" vertex="1">
          <mxGeometry x="210" y="1040" width="240" height="60" as="geometry" />
        </mxCell>
        <mxCell id="u8P_IBuPq3PQ_i1UfOx8-35" value="C2H" style="rounded=1;whiteSpace=wrap;html=1;" parent="1" vertex="1">
          <mxGeometry x="560" y="874" width="120" height="60" as="geometry" />
        </mxCell>
        <mxCell id="u8P_IBuPq3PQ_i1UfOx8-43" value="X&amp;nbsp;" style="text;html=1;align=center;verticalAlign=middle;resizable=0;points=[];autosize=1;strokeColor=none;fillColor=none;" parent="1" vertex="1">
          <mxGeometry x="165" y="395" width="30" height="30" as="geometry" />
        </mxCell>
        <mxCell id="u8P_IBuPq3PQ_i1UfOx8-45" value="Y" style="text;html=1;align=center;verticalAlign=middle;resizable=0;points=[];autosize=1;strokeColor=none;fillColor=none;" parent="1" vertex="1">
          <mxGeometry x="375" y="335" width="30" height="30" as="geometry" />
        </mxCell>
        <mxCell id="u8P_IBuPq3PQ_i1UfOx8-46" value="时钟周期为: X/2 or Y/4" style="text;html=1;align=center;verticalAlign=middle;resizable=0;points=[];autosize=1;strokeColor=#82b366;fillColor=#d5e8d4;" parent="1" vertex="1">
          <mxGeometry x="560" y="380" width="140" height="30" as="geometry" />
        </mxCell>
        <mxCell id="u8P_IBuPq3PQ_i1UfOx8-47" value="时钟周期为:(X+Y)/6" style="text;html=1;align=center;verticalAlign=middle;resizable=0;points=[];autosize=1;strokeColor=#82b366;fillColor=#d5e8d4;" parent="1" vertex="1">
          <mxGeometry x="565" y="800" width="130" height="30" as="geometry" />
        </mxCell>
      </root>
    </mxGraphModel>
  </diagram>
</mxfile>
